<svg xmlns="http://www.w3.org/2000/svg" xmlns:xlink="http://www.w3.org/1999/xlink" viewBox="0 0 179.29 228.26"><defs><style>.cls-1{isolation:isolate;}.cls-2{fill:#fff;}.cls-3,.cls-4{mix-blend-mode:multiply;}.cls-3{fill:url(#linear-gradient);}.cls-4{fill:url(#linear-gradient-2);}</style><linearGradient id="linear-gradient" x1="142.49" y1="54.82" x2="71.72" y2="18.76" gradientUnits="userSpaceOnUse"><stop offset="0.17" stop-color="#b4b5bf"/><stop offset="0.27" stop-color="#c9cad1"/><stop offset="0.43" stop-color="#e1e1e5"/><stop offset="0.59" stop-color="#f2f2f4"/><stop offset="0.78" stop-color="#fcfcfc"/><stop offset="1" stop-color="#fff"/></linearGradient><linearGradient id="linear-gradient-2" x1="144.41" y1="174.19" x2="71.83" y2="208.03" gradientUnits="userSpaceOnUse"><stop offset="0.16" stop-color="#b4b5bf"/><stop offset="0.27" stop-color="#c9cad1"/><stop offset="0.42" stop-color="#e1e1e5"/><stop offset="0.59" stop-color="#f2f2f4"/><stop offset="0.77" stop-color="#fcfcfc"/><stop offset="1" stop-color="#fff"/></linearGradient></defs><title>Asset 1</title><g class="cls-1"><g id="Layer_2" data-name="Layer 2"><g id="Layer_2-2" data-name="Layer 2"><path class="cls-2" d="M155.3,114.13c33.6-31.37,22.09-64.59,22.09-64.59C163.65-5.14,108.16.14,108.16.14H0v228H108.16s55.49,5.28,69.23-49.4C177.39,178.72,188.9,145.5,155.3,114.13Zm-39.67,50.33h-51V63.8h51l-51,50.33Z"/><path class="cls-3" d="M108.16.14h-27L64.64,63.8h50.89l45.3-45C139.43-2.84,108.16.14,108.16.14Z"/><path class="cls-4" d="M115.55,164.46H64.64L81.2,228.12h27s31.28,3,52.69-18.68Z"/></g></g></g></svg>