<svg xmlns="http://www.w3.org/2000/svg" xmlns:xlink="http://www.w3.org/1999/xlink" viewBox="0 0 179.05 227.95"><defs><style>.cls-1{isolation:isolate;}.cls-2{fill:#d7345b;}.cls-3,.cls-4{mix-blend-mode:multiply;}.cls-3{fill:url(#linear-gradient);}.cls-4{fill:url(#linear-gradient-2);}</style><linearGradient id="linear-gradient" x1="142.3" y1="54.74" x2="71.62" y2="18.73" gradientUnits="userSpaceOnUse"><stop offset="0.17" stop-color="#b4b5bf"/><stop offset="0.27" stop-color="#c9cad1"/><stop offset="0.43" stop-color="#e1e1e5"/><stop offset="0.59" stop-color="#f2f2f4"/><stop offset="0.78" stop-color="#fcfcfc"/><stop offset="1" stop-color="#fff"/></linearGradient><linearGradient id="linear-gradient-2" x1="144.22" y1="173.95" x2="71.74" y2="207.75" gradientUnits="userSpaceOnUse"><stop offset="0.16" stop-color="#b4b5bf"/><stop offset="0.27" stop-color="#c9cad1"/><stop offset="0.42" stop-color="#e1e1e5"/><stop offset="0.59" stop-color="#f2f2f4"/><stop offset="0.77" stop-color="#fcfcfc"/><stop offset="1" stop-color="#fff"/></linearGradient></defs><title>Asset 3</title><g class="cls-1"><g id="Layer_2" data-name="Layer 2"><g id="Layer_1-2" data-name="Layer 1"><path class="cls-2" d="M155.09,114c33.56-31.33,22.06-64.5,22.06-64.5C163.43-5.13,108,.14,108,.14H0V227.82H108s55.41,5.27,69.13-49.34C177.15,178.48,188.65,145.31,155.09,114Zm-39.61,50.26H64.55V63.72h50.93L64.57,114Z"/><path class="cls-3" d="M108,.14H81.1L64.55,63.72h50.83l45.24-44.93C139.24-2.83,108,.14,108,.14Z"/><path class="cls-4" d="M115.39,164.24H64.55L81.1,227.82H108s31.23,3,52.61-18.66Z"/></g></g></g></svg>